<svg width="411" height="280" viewBox="0 0 411 280" fill="none" xmlns="http://www.w3.org/2000/svg">
<path d="M314.443 218.011C316.978 228.203 269.708 248.736 208.862 263.874C148.015 279.01 96.6335 283.019 94.0984 272.828C91.5628 262.636 138.833 242.103 199.68 226.966C260.526 211.829 311.907 207.819 314.443 218.011Z" stroke="#100F0D" stroke-width="2.85485" stroke-miterlimit="10" stroke-linecap="round" stroke-linejoin="round"/>
<path d="M279.449 231.207C280.587 235.782 248.322 247.747 207.384 257.932C166.445 268.117 132.335 272.664 131.196 268.089C130.058 263.514 162.323 251.548 203.262 241.364C244.2 231.179 278.31 226.632 279.449 231.207Z" stroke="#100F0D" stroke-width="2.85485" stroke-miterlimit="10" stroke-linecap="round" stroke-linejoin="round"/>
<path d="M190.112 103.271C176.333 111.94 139.408 219.996 157.785 233.855C169.568 242.742 250.657 162.528 253.174 138.147C254.676 123.608 206.656 92.8628 190.112 103.271Z" fill="#F68A11"/>
<path d="M174.065 121.269L214.607 145.24" stroke="#100F0D" stroke-width="1.90324" stroke-miterlimit="10" stroke-linecap="round" stroke-linejoin="round"/>
<path d="M230.059 179.371L194.061 154.981" stroke="#100F0D" stroke-width="1.90324" stroke-miterlimit="10" stroke-linecap="round" stroke-linejoin="round"/>
<path d="M156.699 168.54L188.614 182.653" stroke="#100F0D" stroke-width="1.90324" stroke-miterlimit="10" stroke-linecap="round" stroke-linejoin="round"/>
<path d="M198.654 219.938L173.553 207.692" stroke="#100F0D" stroke-width="1.90324" stroke-miterlimit="10" stroke-linecap="round" stroke-linejoin="round"/>
<path d="M222.678 110.233L218.129 68.988C224.475 65.7092 236.959 70.5779 236.959 70.5779L226.439 110.605L222.678 110.233Z" fill="#92D230"/>
<path d="M236.787 58.7343L219.771 112.753C223.902 117.067 231.202 120.596 231.202 120.596L267.084 96.7602C265.477 89.9694 257.663 85.0471 257.663 85.0471L228.909 112.517L256.467 65.033C246.024 57.4909 236.787 58.7343 236.787 58.7343Z" fill="#4F9834"/>
<path d="M272.451 173.573C272.451 173.573 168.469 131.975 172.779 119.358L156.945 141.605C162.026 161.177 262.812 197.124 262.812 197.124L272.451 173.573Z" fill="#4F9834"/>
<path d="M267.815 170.002L283.363 175.639L272.427 203.311L258.126 197.55L267.815 170.002Z" fill="#EF3244"/>
<path d="M257.531 165.083L253.611 176.256" stroke="#100F0D" stroke-width="1.90324" stroke-miterlimit="10" stroke-linecap="round" stroke-linejoin="round"/>
<path d="M243.602 159.556L238.669 170.481" stroke="#100F0D" stroke-width="1.90324" stroke-miterlimit="10" stroke-linecap="round" stroke-linejoin="round"/>
<path d="M229.825 153.996L224.378 165.116" stroke="#100F0D" stroke-width="1.90324" stroke-miterlimit="10" stroke-linecap="round" stroke-linejoin="round"/>
<path d="M217.495 147.787L210.312 158.983" stroke="#100F0D" stroke-width="1.90324" stroke-miterlimit="10" stroke-linecap="round" stroke-linejoin="round"/>
<path d="M203.897 140.91L196.328 152.513" stroke="#100F0D" stroke-width="1.90324" stroke-miterlimit="10" stroke-linecap="round" stroke-linejoin="round"/>
<path d="M190.562 132.379L180.826 143.916" stroke="#100F0D" stroke-width="1.90324" stroke-miterlimit="10" stroke-linecap="round" stroke-linejoin="round"/>
<path d="M178.522 123.236L169.172 134.366" stroke="#100F0D" stroke-width="1.90324" stroke-miterlimit="10" stroke-linecap="round" stroke-linejoin="round"/>
<path d="M271.767 198.997C271.022 200.178 269.461 200.532 268.28 199.788C267.098 199.044 266.743 197.483 267.488 196.301C268.232 195.12 269.793 194.766 270.975 195.51C272.157 196.254 272.511 197.815 271.767 198.997Z" stroke="#100F0D" stroke-width="1.90324" stroke-miterlimit="10" stroke-linecap="round" stroke-linejoin="round"/>
<path d="M144.651 146.234C144.651 146.234 207.636 210.684 215.684 203.59L204.033 222.219C187.92 224.479 130.121 160.661 130.121 160.661L144.651 146.234Z" fill="#4F9834"/>
<path d="M148.735 148.578L139.75 138.761L122.557 155.423L131.249 164.275L148.735 148.578Z" fill="#EF3244"/>
<path d="M155.562 154.704L148.468 161.063" stroke="#100F0D" stroke-width="1.90324" stroke-miterlimit="10" stroke-linecap="round" stroke-linejoin="round"/>
<path d="M163.966 163.351L157.368 170.387" stroke="#100F0D" stroke-width="1.90324" stroke-miterlimit="10" stroke-linecap="round" stroke-linejoin="round"/>
<path d="M172.348 171.876L165.762 179.354" stroke="#100F0D" stroke-width="1.90324" stroke-miterlimit="10" stroke-linecap="round" stroke-linejoin="round"/>
<path d="M180.764 179.125L174.659 187.916" stroke="#100F0D" stroke-width="1.90324" stroke-miterlimit="10" stroke-linecap="round" stroke-linejoin="round"/>
<path d="M190.069 187.11L183.78 196.314" stroke="#100F0D" stroke-width="1.90324" stroke-miterlimit="10" stroke-linecap="round" stroke-linejoin="round"/>
<path d="M200.522 194.39L194.951 205.184" stroke="#100F0D" stroke-width="1.90324" stroke-miterlimit="10" stroke-linecap="round" stroke-linejoin="round"/>
<path d="M211.031 200.518L205.643 210.9" stroke="#100F0D" stroke-width="1.90324" stroke-miterlimit="10" stroke-linecap="round" stroke-linejoin="round"/>
<path d="M125.967 154.584C125.319 155.501 125.537 156.771 126.454 157.42C127.372 158.068 128.641 157.85 129.29 156.932C129.938 156.015 129.72 154.745 128.803 154.097C127.885 153.448 126.616 153.666 125.967 154.584Z" stroke="#100F0D" stroke-width="1.90324" stroke-miterlimit="10" stroke-linecap="round" stroke-linejoin="round"/>
<path d="M346.526 58.1717C327.338 49.6752 314.249 81.6162 348.81 79.7971C383.37 77.9781 367.134 47.7862 346.526 58.1717Z" fill="#EF3244"/>
<path d="M337.713 49.6715L345.3 59.6599C347.076 60.2954 349.204 59.5614 349.204 59.5614L353.372 47.3492L349.813 46.354L347.823 57.649L346.051 44.1144L340.978 45.1974L346.439 57.9404L340.915 48.0883L337.713 49.6715Z" fill="#92D230"/>
<path d="M342.603 60.1879C345.019 61.4337 347.878 61.7992 350.53 61.202" stroke="#100F0D" stroke-width="1.90324" stroke-miterlimit="10" stroke-linecap="round" stroke-linejoin="round"/>
<path d="M94.0774 50.9506C92.3115 59.6013 120.836 114.579 133.157 112.568C141.058 111.28 140.002 49.423 131.387 39.2978C126.25 33.2598 96.1976 40.5631 94.0774 50.9506Z" fill="#F68A11"/>
<path d="M95.1196 63.9875L119.713 57.0768" stroke="#100F0D" stroke-width="1.90324" stroke-miterlimit="10" stroke-linecap="round" stroke-linejoin="round"/>
<path d="M138.885 63.8116L115.831 68.7839" stroke="#100F0D" stroke-width="1.90324" stroke-miterlimit="10" stroke-linecap="round" stroke-linejoin="round"/>
<path d="M107.144 88.5136L124.638 81.2905" stroke="#100F0D" stroke-width="1.90324" stroke-miterlimit="10" stroke-linecap="round" stroke-linejoin="round"/>
<path d="M143.019 91.3289L128.81 96.5804" stroke="#100F0D" stroke-width="1.90324" stroke-miterlimit="10" stroke-linecap="round" stroke-linejoin="round"/>
<path d="M109.013 40.7919L91.1375 27.1164C92.2302 23.3997 98.8184 20.3297 98.8184 20.3297L110.568 39.4567L109.013 40.7919Z" fill="#92D230"/>
<path d="M94.1106 15.9581L108.912 42.8763C112.151 42.8738 116.271 41.3344 116.271 41.3344L120.374 18.3325C117.11 16.4175 112.252 17.6358 112.252 17.6358L112.244 39.2056L103.957 10.6031C97.0852 11.8709 94.1106 15.9581 94.1106 15.9581Z" fill="#4F9834"/>
<path d="M202.441 40.0273C191.74 30.8167 149.574 54.6174 172.729 74.5473C195.883 94.4772 213.142 49.2374 202.441 40.0273Z" fill="#92D230"/>
<path d="M193.174 56.0036C192.453 54.9363 191.438 53.9824 190.083 53.2035C179.718 47.2385 168.393 58.0916 172.378 67.6538" stroke="#100F0D" stroke-width="1.90324" stroke-miterlimit="10" stroke-linecap="round" stroke-linejoin="round"/>
<path d="M188.654 55.1017C179.03 49.5634 168.373 62.1655 177.065 70.2155C185.758 78.2659 198.584 60.8161 188.654 55.1017Z" fill="#F25B19"/>
<path d="M201.173 39.7073C204.367 35.7916 204.94 31.0918 204.94 31.0918C207.373 30.0991 209.443 33.3192 209.443 33.3192C208.142 36.3387 202.886 41.1818 202.886 41.1818C201.986 41.0037 201.173 39.7073 201.173 39.7073Z" fill="#F25B19"/>
<path d="M199.403 39.0559C199.956 40.3605 201.033 41.4334 202.34 41.981" stroke="#100F0D" stroke-width="1.90324" stroke-miterlimit="10" stroke-linecap="round" stroke-linejoin="round"/>
<path d="M283.122 85.3452C280.189 87.0413 277.968 90.001 276.819 93.557C275.181 98.6293 275.557 104.129 274.404 109.359C273.183 114.895 270.238 119.219 267.352 123.987C264.549 128.617 263.265 133.868 265.562 139.113C267.551 143.655 271.613 147.154 276.104 149.295C283.372 152.759 292.081 153.203 299.233 149.779C310.631 144.323 315.97 130.932 316.07 118.994C316.142 110.293 312.674 101.635 306.922 94.8457C303.217 90.4732 298.331 86.0317 292.619 84.355C289.045 83.3057 285.789 83.8033 283.122 85.3452Z" fill="#EF3244"/>
<path d="M284.598 89.0516C282.177 90.4511 280.344 92.8934 279.396 95.8281C278.045 100.013 278.355 104.552 277.403 108.867C276.396 113.436 273.966 117.004 271.584 120.938C269.271 124.759 268.212 129.092 270.107 133.42C271.749 137.168 275.1 140.056 278.806 141.823C284.804 144.681 291.991 145.047 297.892 142.222C307.297 137.72 311.704 126.669 311.786 116.818C311.846 109.638 308.984 102.494 304.237 96.8913C301.179 93.2828 297.148 89.6182 292.434 88.234C289.485 87.3683 286.799 87.7787 284.598 89.0516Z" fill="#F25B19"/>
<path d="M288.191 135.045C286.571 138.514 282.446 140.012 278.978 138.392C275.51 136.771 274.012 132.647 275.632 129.178C277.252 125.711 281.377 124.213 284.845 125.833C288.313 127.453 289.811 131.578 288.191 135.045Z" fill="#FDFEF3"/>
<path d="M289.815 134.628C287.705 139.145 282.332 141.096 277.814 138.986C273.296 136.876 271.345 131.503 273.455 126.985C275.566 122.467 280.939 120.516 285.457 122.626C289.974 124.737 291.926 130.11 289.815 134.628Z" stroke="#100F0D" stroke-width="1.90324" stroke-miterlimit="10" stroke-linecap="round" stroke-linejoin="round"/>
<path d="M279.39 34.2048C277.155 34.1563 275.383 32.3056 275.432 30.0716C275.481 27.8371 277.331 26.0655 279.565 26.114C281.8 26.1625 283.571 28.0132 283.523 30.2472C283.475 32.4817 281.624 34.2533 279.39 34.2048ZM260.946 24.7053C258.622 24.6548 256.779 22.7301 256.83 20.4063C256.88 18.083 258.805 16.2399 261.129 16.2909C263.452 16.3415 265.295 18.2657 265.245 20.5895C265.194 22.9133 263.27 24.7558 260.946 24.7053ZM261.608 41.9127C260.294 41.8842 259.252 40.796 259.281 39.4822C259.309 38.1685 260.398 37.1268 261.711 37.1554C263.025 37.1839 264.067 38.2721 264.038 39.5859C264.01 40.8996 262.921 41.9413 261.608 41.9127ZM293.305 16.6666C293.365 13.9003 295.058 11.5581 297.44 10.524C297.259 8.98876 297.026 7.44478 296.729 5.90237C296.644 5.45832 296.198 5.17918 295.759 5.29044C293.346 5.9024 285.785 7.7148 276.832 8.82338C275.714 12.5886 272.197 15.3008 268.082 15.2115C264.408 15.1319 261.303 12.8438 260 9.6441C256.396 9.47924 252.921 9.03571 249.798 8.20019C249.311 8.07004 248.831 8.43291 248.815 8.93667C248.744 11.0967 248.5 16.515 247.712 23.1052C250.122 24.2128 251.772 26.6703 251.711 29.4908C251.635 32.9951 248.943 35.8232 245.541 36.1647C244.965 38.7708 244.289 41.3631 243.496 43.8436C243.362 44.2606 243.589 44.7046 244.009 44.8327C246.895 45.7147 257.825 48.6443 272.99 47.8073C273.551 43.3194 277.427 39.8931 282.048 39.9937C285.642 40.0718 288.685 42.2654 290.036 45.3553C291.424 45.0302 292.828 44.675 294.251 44.2754C294.517 44.2003 294.727 43.9926 294.8 43.7257C295.328 41.801 297.427 33.5908 297.87 23.2793C295.157 22.3157 293.239 19.7024 293.305 16.6666Z" fill="#FBC815"/>
<path d="M285.246 29.432C285.187 32.1371 282.947 34.2823 280.241 34.2236C277.537 34.1643 275.392 31.9242 275.45 29.2191C275.509 26.5141 277.75 24.3689 280.455 24.4281C283.159 24.4868 285.305 26.7274 285.246 29.432Z" stroke="#100F0D" stroke-width="1.90324" stroke-miterlimit="10" stroke-linecap="round" stroke-linejoin="round"/>
<path d="M263.697 38.9427C263.661 40.6326 262.261 41.9724 260.571 41.9356C258.882 41.8989 257.541 40.4994 257.578 38.8095C257.615 37.1201 259.014 35.7798 260.704 35.8165C262.394 35.8533 263.734 37.2533 263.697 38.9427Z" stroke="#100F0D" stroke-width="1.90324" stroke-miterlimit="10" stroke-linecap="round" stroke-linejoin="round"/>
<path d="M263.031 19.1006C262.983 21.3019 261.16 23.0475 258.958 23C256.757 22.952 255.011 21.1284 255.059 18.927C255.107 16.7257 256.93 14.9796 259.132 15.0276C261.333 15.0756 263.079 16.8988 263.031 19.1006Z" stroke="#100F0D" stroke-width="1.90324" stroke-miterlimit="10" stroke-linecap="round" stroke-linejoin="round"/>
<path d="M104.787 208.219C104.157 207.561 108.063 205.123 109.023 206.378C109.983 207.633 105.632 209.101 104.787 208.219Z" fill="#100F0D"/>
<path d="M104.34 220.935C103.71 220.277 107.616 217.839 108.576 219.094C109.536 220.349 105.185 221.817 104.34 220.935Z" fill="#100F0D"/>
<path d="M108.878 212.647C108.575 211.788 113.138 211.172 113.497 212.711C113.855 214.25 109.285 213.798 108.878 212.647Z" fill="#100F0D"/>
<path d="M111.132 226.27C110.828 225.411 115.391 224.796 115.75 226.335C116.109 227.873 111.539 227.422 111.132 226.27Z" fill="#100F0D"/>
<path d="M92.4691 228.266C92.0684 227.448 88.4339 230.275 89.2812 231.608C90.1289 232.942 93.006 229.363 92.4691 228.266Z" fill="#100F0D"/>
<path d="M87.1536 226.277C87.4567 225.418 82.8933 224.805 82.5355 226.344C82.1782 227.883 86.7478 227.428 87.1536 226.277Z" fill="#100F0D"/>
<path d="M85.1184 218.468C85.6834 217.753 81.565 215.694 80.7275 217.034C79.8904 218.374 84.3605 219.425 85.1184 218.468Z" fill="#100F0D"/>
<path d="M89.8003 213.783C90.6598 213.482 88.2819 209.539 86.8574 210.223C85.4334 210.907 88.6474 214.187 89.8003 213.783Z" fill="#100F0D"/>
<path d="M319.128 152.33C298.621 155.969 302.115 192.778 325.919 194.589C349.723 196.399 344.927 147.751 319.128 152.33Z" fill="#F25B19"/>
<path d="M323.073 171.122C325.075 166.937 326.997 162.717 329.07 158.563C326.605 157.094 323.614 156.453 320.125 157.072C317.939 157.46 316.107 158.338 314.619 159.562C316.066 161.608 317.781 163.471 319.233 165.515C320.548 167.363 321.792 169.254 323.073 171.122Z" fill="#F68A11"/>
<path d="M336.768 170.45C335.904 166.521 334.071 162.816 331.334 160.267C329.473 163.978 327.715 167.732 325.948 171.486C329.523 170.882 333.161 170.796 336.768 170.45Z" fill="#F68A11"/>
<path d="M325.436 174.433C328.338 178.336 331.29 182.202 334.239 186.069C336.756 182.874 337.705 178.043 337.212 173.224C333.287 173.622 329.325 173.74 325.436 174.433Z" fill="#F68A11"/>
<path d="M316.745 172.434C317.971 172.339 319.196 172.272 320.418 172.185C319.279 170.519 318.164 168.836 316.999 167.184C315.644 165.26 314.064 163.502 312.663 161.616C310.318 164.75 309.396 169.052 309.828 173.354C312.143 173.149 314.423 172.615 316.745 172.434Z" fill="#F68A11"/>
<path d="M317.066 175.215C314.789 175.379 312.557 175.872 310.293 176.11C311.114 179.555 312.817 182.835 315.372 185.322C317.25 181.838 319.402 178.497 321.2 174.953C319.822 175.054 318.44 175.116 317.066 175.215Z" fill="#F68A11"/>
<path d="M317.568 187.111C319.737 188.577 322.345 189.545 325.38 189.775C328.157 189.987 330.428 189.305 332.22 188.016C329.311 184.201 326.4 180.387 323.534 176.539C321.693 180.146 319.451 183.536 317.568 187.111Z" fill="#F68A11"/>
<path d="M334.911 169.253L325.026 170.805L328.12 165.196" stroke="#100F0D" stroke-width="1.90324" stroke-miterlimit="10" stroke-linecap="round" stroke-linejoin="round"/>
<path d="M328.04 179.945L332.636 186.47C330.103 188.503 325.372 188.132 325.372 188.132" stroke="#100F0D" stroke-width="1.90324" stroke-miterlimit="10" stroke-linecap="round" stroke-linejoin="round"/>
<path d="M67.6841 80.0988L66.1458 80.4408L67.6678 80.8491C70.2294 81.5361 72.196 83.5904 72.7712 86.1791L73.1131 87.7175L73.5215 86.1955C74.209 83.6343 76.2633 81.6673 78.852 81.092L80.3903 80.7506L78.8684 80.3423C76.3067 79.6548 74.3401 77.6004 73.7649 75.0117L73.423 73.4734L73.0146 74.9954C72.3271 77.5566 70.2728 79.5236 67.6841 80.0988Z" fill="#FBC815"/>
<path d="M54.8868 95.7444L52.6599 96.239L54.8633 96.8305C58.5718 97.8253 61.4193 100.8 62.2523 104.548L62.7473 106.775L63.3384 104.572C64.3336 100.863 67.3077 98.0152 71.0561 97.1827L73.2834 96.6876L71.08 96.0966C67.3715 95.1013 64.5235 92.1268 63.6906 88.3784L63.196 86.1516L62.6044 88.355C61.6097 92.0635 58.6351 94.9115 54.8868 95.7444Z" fill="#FBC815"/>
<path d="M54.8086 73.4133L53.7322 73.6527L54.7974 73.9385C56.5899 74.4193 57.9659 75.857 58.3686 77.6684L58.608 78.7449L58.8933 77.6797C59.3746 75.8877 60.8119 74.5111 62.6238 74.1084L63.7002 73.8696L62.635 73.5838C60.8425 73.1025 59.4665 71.6652 59.0638 69.8533L58.8244 68.7769L58.5386 69.8421C58.0578 71.6346 56.6205 73.0111 54.8086 73.4133Z" fill="#FBC815"/>
<path d="M347.296 121.066L348.752 120.743L347.311 120.356C344.888 119.706 343.026 117.762 342.482 115.311L342.158 113.856L341.772 115.296C341.121 117.72 339.177 119.582 336.727 120.126L335.271 120.45L336.711 120.836C339.135 121.487 340.997 123.431 341.541 125.881L341.865 127.337L342.251 125.896C342.902 123.472 344.846 121.611 347.296 121.066Z" fill="#FBC815"/>
<path d="M162.107 20.0565L160.667 19.6696L162.123 19.3465C164.573 18.8019 166.517 16.9405 167.167 14.5162L167.554 13.0758L167.877 14.5315C168.422 16.9819 170.283 18.926 172.707 19.5767L174.148 19.9631L172.692 20.2867C170.242 20.8307 168.297 22.6922 167.647 25.1166L167.261 26.5569L166.937 25.1012C166.393 22.6508 164.531 20.7067 162.107 20.0565Z" fill="#FBC815"/>
<path d="M181.036 6.98067L179.596 6.59429L181.052 6.2707C183.502 5.72611 185.446 3.86467 186.097 1.4403L186.483 -1.71661e-05L186.807 1.45615C187.351 3.90604 189.213 5.85013 191.637 6.50088L193.077 6.88726L191.621 7.21085C189.171 7.75544 187.227 9.61684 186.577 12.0407L186.19 13.481L185.867 12.0254C185.322 9.57551 183.461 7.63091 181.036 6.98067Z" fill="#FBC815"/>
<path d="M6.10942 109.07C6.10942 110.757 4.74207 112.125 3.05471 112.125C1.36786 112.125 0 110.757 0 109.07C0 107.383 1.36786 106.015 3.05471 106.015C4.74207 106.015 6.10942 107.383 6.10942 109.07Z" fill="white"/>
<path d="M71.0375 135.812C62.0616 110.332 32.2965 135.208 52.1522 155.802C72.0074 176.397 102.348 145.618 71.0375 135.812Z" fill="#FBC815"/>
<path d="M69.6062 136.3C71.9671 132.495 78.9984 128.604 78.9984 128.604C81.5799 130.445 81.494 132.778 81.494 132.778C74.3846 134.623 71.0959 137.581 71.0959 137.581C70.4941 137.397 69.6062 136.3 69.6062 136.3Z" fill="#F25B19"/>
<path d="M67.6865 134.344C68.4787 139.241 73.2869 139.501 73.2869 139.501" stroke="#100F0D" stroke-width="1.90324" stroke-miterlimit="10" stroke-linecap="round" stroke-linejoin="round"/>
<path fill-rule="evenodd" clip-rule="evenodd" d="M102.167 192.175C102.126 192.17 102.034 192.175 102.034 192.175C94.6057 191.673 88.8291 194.398 85.0039 197.718C81.1245 201.091 77.8041 205.7 77.0833 212.638C76.3575 219.647 79.1323 225.698 82.7606 229.534C86.4806 233.47 91.503 236.436 98.2056 236.927C105.043 237.428 111.31 234.865 115.499 231.383C119.742 227.858 122.794 223.064 123.42 216.466C124.152 208.754 121.287 203.3 117.742 199.568C114.144 195.776 109.265 192.733 102.167 192.175Z" fill="#DF3829"/>
<path fill-rule="evenodd" clip-rule="evenodd" d="M84.0821 184.256C84.0304 186.382 84.8697 187.977 85.9275 189.27C87.2048 190.831 89.303 192.101 91.473 192.966C93.6188 193.825 96.3827 194.804 98.8656 193.627C99.3052 187.966 93.5887 183.612 88.3052 183.066C86.8027 182.912 84.6694 182.928 84.0821 184.256Z" fill="#0CAC76"/>
<path fill-rule="evenodd" clip-rule="evenodd" d="M86.061 184.387C85.8291 185.92 87.6019 186.471 88.5697 187.159C91.6373 189.336 95.163 191.855 98.4709 193.892C98.7312 196.752 99.014 199.596 102.167 199.568C103.22 198.939 103.189 196.928 103.09 195.344C102.969 193.416 102.606 187.308 101.11 186.896C98.8313 186.262 98.737 189.557 98.4709 191.515C97.9019 191.583 97.5707 191.019 97.1494 190.721C95.807 189.778 94.4021 188.807 92.9263 187.819C91.0825 186.586 88.9284 185.233 86.8527 184.518C86.5849 184.427 86.5115 184.373 86.061 184.387Z" fill="#1F543E"/>
<path fill-rule="evenodd" clip-rule="evenodd" d="M108.635 197.851C108.433 198.838 109.043 199.548 109.427 200.094C109.773 200.589 110.146 201.476 111.143 201.285C112.055 199.978 110.355 196.524 108.635 197.851Z" fill="white"/>
<path fill-rule="evenodd" clip-rule="evenodd" d="M88.4371 200.228C88.6114 200.36 88.8359 200.446 88.966 200.623C89.807 200.164 91.483 199.881 91.604 199.04C91.8827 197.124 87.9991 198.216 88.4371 200.228Z" fill="white"/>
<path fill-rule="evenodd" clip-rule="evenodd" d="M87.2483 203.529C87.4285 203.656 87.5136 203.88 87.6454 204.056C88.6541 204.053 89.1821 203.568 89.0979 202.473C88.2978 201.84 87.441 202.752 87.2483 203.529Z" fill="white"/>
<path fill-rule="evenodd" clip-rule="evenodd" d="M106.259 203.265C106.235 204.566 106.415 205.66 107.579 205.773C107.584 205.645 107.74 205.67 107.842 205.64C108.299 204.447 107.591 202.263 106.259 203.265Z" fill="white"/>
<path fill-rule="evenodd" clip-rule="evenodd" d="M85.2701 203.265C84.0712 203.519 83.7058 204.605 83.2878 205.64C83.4439 205.837 83.619 206.014 83.8168 206.166C84.8363 205.707 85.8558 204.641 85.5329 203.265C85.4453 203.265 85.3552 203.265 85.2701 203.265Z" fill="white"/>
<path fill-rule="evenodd" clip-rule="evenodd" d="M110.879 204.583C110.593 206.102 110.749 208.496 112.069 208.544C114.171 208.624 113.141 202.624 110.879 204.583Z" fill="white"/>
<path fill-rule="evenodd" clip-rule="evenodd" d="M117.216 211.845C117.665 211.396 117.644 209.721 116.819 209.732C115.821 209.824 115.991 212.086 117.216 211.845Z" fill="white"/>
<path fill-rule="evenodd" clip-rule="evenodd" d="M106.522 212.241C106.256 213.396 106.241 215.302 107.183 215.674C109.504 215.814 108.592 210.302 106.522 212.241Z" fill="white"/>
<path fill-rule="evenodd" clip-rule="evenodd" d="M112.859 218.444C114.959 219.193 114.737 216.562 114.84 214.881C113.141 212.39 111.601 216.792 112.859 218.444Z" fill="white"/>
<path fill-rule="evenodd" clip-rule="evenodd" d="M80.5156 216.73C80.4397 217.599 80.5723 218.257 80.9111 218.709C81.1755 218.709 81.4408 218.709 81.7045 218.709C82.3402 217.882 81.5893 215.827 80.5156 216.73Z" fill="white"/>
<path fill-rule="evenodd" clip-rule="evenodd" d="M118.669 217.785C117.668 218.42 117.239 220.56 117.611 221.746C117.766 221.726 117.846 221.775 117.875 221.879C119.533 221.746 119.681 219.006 119.063 217.785C118.931 217.785 118.801 217.785 118.669 217.785Z" fill="white"/>
<path fill-rule="evenodd" clip-rule="evenodd" d="M109.03 220.953C108.657 221.653 108.023 222.991 108.635 223.858C110.387 224.644 111.632 220.034 109.03 220.953Z" fill="white"/>
<path fill-rule="evenodd" clip-rule="evenodd" d="M81.4407 221.879C81.9145 223.428 81.6292 225.738 83.8167 225.575C84.6151 224.154 83.5614 221.644 81.8345 221.483C81.7627 221.672 81.6292 221.805 81.4407 221.879Z" fill="white"/>
<path fill-rule="evenodd" clip-rule="evenodd" d="M85.1367 222.273C85.3102 223.419 85.4512 224.599 86.721 224.65C87.3559 223.728 86.4449 221.67 85.1367 222.273Z" fill="white"/>
<path fill-rule="evenodd" clip-rule="evenodd" d="M112.859 227.687C113.951 227.459 114.379 226.569 114.445 225.31C113.314 223.991 111.808 226.835 112.859 227.687Z" fill="white"/>
<path fill-rule="evenodd" clip-rule="evenodd" d="M87.5136 228.083C87.1841 228.944 87.7314 229.821 88.7016 229.798C89.309 229.099 88.6941 227.818 87.5136 228.083Z" fill="white"/>
<path fill-rule="evenodd" clip-rule="evenodd" d="M106.919 232.041C107.108 232.116 107.243 232.247 107.314 232.439C108.802 232.165 109.922 231.527 109.956 229.798C108.592 228.834 107.164 230.635 106.919 232.041Z" fill="white"/>
<path fill-rule="evenodd" clip-rule="evenodd" d="M100.054 233.231C100.183 233.234 100.157 233.392 100.185 233.496C101.445 233.853 102.979 232.992 102.959 232.041C102.915 230.243 100.081 231.689 100.054 233.231Z" fill="white"/>
<path fill-rule="evenodd" clip-rule="evenodd" d="M79.023 214.854C79.1456 213.78 79.8214 213.505 79.6829 212.345C79.4785 210.62 76.8122 208.652 74.5346 207.856C72.3312 207.086 69.9018 206.873 66.7474 207.064C61.9553 207.353 57.4285 209.496 53.4131 212.081C49.4152 214.656 46.33 217.603 44.568 221.454C43.823 223.085 43.0722 226.391 44.0416 227.79C44.4095 228.326 45.0778 228.573 45.6242 228.715C46.2917 228.886 47.0192 228.632 47.8685 228.846C48.7036 229.058 49.5379 230.269 50.3763 231.486C53.9437 236.653 57.109 241.129 61.4656 245.613C63.2084 247.404 65.0847 249.147 67.1429 249.969C70.8646 251.455 75.1553 249.262 77.835 247.856C81.6293 245.869 84.8671 243.926 88.6606 241.255C90.3676 240.055 92.8437 238.354 93.1499 236.502C93.5921 233.832 91.81 231.645 90.6412 230.033C86.7476 224.681 82.7764 220.175 79.023 214.854Z" fill="#EDC949"/>
<path d="M43.662 224.717V224.716C43.501 225.919 43.5577 227.092 44.0416 227.79C44.4095 228.326 45.0778 228.573 45.6242 228.715C46.2917 228.886 47.0192 228.632 47.8685 228.846C48.7036 229.058 49.5379 230.269 50.3763 231.486C53.9437 236.653 57.109 241.129 61.4656 245.613C63.2084 247.404 65.0847 249.147 67.1429 249.969C70.8646 251.455 75.1553 249.262 77.835 247.856C81.6293 245.869 84.8671 243.926 88.6606 241.255C90.3676 240.055 92.8437 238.354 93.1499 236.502C93.1999 236.205 93.2166 235.912 93.2158 235.625C93.2158 235.636 93.2175 235.641 93.2175 235.651C93.2684 236.104 93.2458 238.765 93.1666 239.25C92.8596 241.099 90.3842 242.802 88.6781 244.003C84.8838 246.673 81.6451 248.616 77.8525 250.603C75.1711 252.01 70.8829 254.203 67.1604 252.716C65.1014 251.892 63.2242 250.15 61.4839 248.358C57.1265 243.878 53.9604 239.401 50.3938 234.233C49.5546 233.018 48.7203 231.805 47.8852 231.593C47.0359 231.376 46.3059 231.634 45.6418 231.462C45.0945 231.318 44.4271 231.073 44.0567 230.538C43.3091 229.458 43.365 226.998 43.662 224.717Z" fill="#B97943"/>
<path fill-rule="evenodd" clip-rule="evenodd" d="M62.919 213.269C60.206 215.408 56.3499 213.509 52.3579 214.062C49.1893 214.497 45.4617 217.794 46.9442 221.981C47.4048 223.276 48.3734 224.202 49.3211 225.149C50.263 226.092 51.5853 227.104 51.8298 228.185C52.3737 230.601 50.7319 233.533 52.0934 235.843C52.8609 237.146 54.5854 237.745 56.0537 237.824C57.8232 237.917 59.3758 236.91 61.0711 237.163C62.7856 237.421 63.7375 239.414 64.6352 240.992C66.3287 243.97 68.6264 247.021 71.6323 248.251C77.7309 250.749 84.8523 246.097 85.0959 240.2C85.1534 238.831 84.652 237.215 84.9641 235.315C85.5405 231.801 90.0707 230.577 88.7934 225.546C88.1277 222.932 85.624 221.318 83.6442 220.001C82.7716 219.421 81.4993 218.688 80.3447 217.889C79.3252 217.185 77.9736 216.296 77.5715 215.381C77.1327 214.381 77.2478 212.917 76.9107 211.948C75.9463 209.168 73.5002 206.204 69.7818 205.876C65.4027 205.49 61.9479 208.249 62.919 213.269Z" fill="white"/>
<path fill-rule="evenodd" clip-rule="evenodd" d="M62.405 226.602C62.405 229.743 65.3609 232.288 69.0058 232.288C72.6525 232.288 75.6067 229.743 75.6067 226.602C75.6067 223.461 72.6525 220.916 69.0058 220.916C65.3609 220.916 62.405 223.461 62.405 226.602Z" fill="#EDED42"/>
<path fill-rule="evenodd" clip-rule="evenodd" d="M67.8028 216.437C67.8237 216.59 67.7736 216.672 67.6702 216.702C67.8704 218.118 70.4308 217.423 70.5743 216.437C70.0487 215.245 68.7839 216.742 67.8028 216.437Z" fill="#0CAC76"/>
<path fill-rule="evenodd" clip-rule="evenodd" d="M60.4094 218.418C60.4319 218.57 60.381 218.653 60.2776 218.683C60.2876 219.396 60.9725 219.734 61.071 220.795C61.1836 222.012 60.6563 224.079 62.5243 223.171C61.5891 221.933 62.8055 218.008 60.4094 218.418Z" fill="#0CAC76"/>
<path fill-rule="evenodd" clip-rule="evenodd" d="M70.7069 222.377C71.7631 222.333 71.4886 220.956 72.1593 220.53C71.4886 218.715 69.6356 221.646 70.7069 222.377Z" fill="#0CAC76"/>
<path fill-rule="evenodd" clip-rule="evenodd" d="M77.0432 220.397C77.3828 221.818 78.0535 222.908 79.949 222.774C79.9307 222.537 80.1092 222.496 80.0792 222.245C80.0591 221.695 79.4326 221.75 79.023 221.585C78.338 221.28 78.1495 219.448 77.0432 220.397Z" fill="#0CAC76"/>
<path fill-rule="evenodd" clip-rule="evenodd" d="M65.9557 224.093C65.8297 224.878 66.3044 225.064 66.7474 225.282C66.8684 225.996 67.2863 226.415 67.6701 226.866C68.1189 226.83 68.7405 226.967 68.9916 226.734C69.0692 226.085 68.8623 225.716 68.1982 225.812C67.8395 224.946 67.0486 223.375 65.9557 224.093Z" fill="#0CAC76"/>
<path fill-rule="evenodd" clip-rule="evenodd" d="M57.1098 226.866C57.2625 226.846 57.3451 226.897 57.3751 226.998C58.1485 226.762 58.6073 226.208 59.0904 225.678C58.5823 224.374 56.5258 225.839 57.1098 226.866Z" fill="#0CAC76"/>
<path fill-rule="evenodd" clip-rule="evenodd" d="M80.6089 228.451C80.1625 228.908 80.5563 229.386 80.4771 230.166C80.3302 230.672 79.6795 231.588 80.4771 231.883C81.6693 231.951 82.2391 228.381 80.6089 228.451Z" fill="#0CAC76"/>
<path fill-rule="evenodd" clip-rule="evenodd" d="M56.0537 233.071C55.7317 232.097 56.0604 231.168 55.5256 230.563C53.9622 230.582 54.8232 234.269 56.0537 233.071Z" fill="#0CAC76"/>
<path fill-rule="evenodd" clip-rule="evenodd" d="M61.071 232.147C60.834 233.916 63.3227 236.089 64.5015 234.787C63.6981 233.832 62.1739 233.597 61.9945 232.015C61.6433 232.016 61.2403 231.965 61.071 232.147Z" fill="#0CAC76"/>
<path fill-rule="evenodd" clip-rule="evenodd" d="M68.9917 232.939C68.8115 233.75 68.084 235.047 68.5954 235.711C69.8485 236.004 70.4509 232.915 68.9917 232.939Z" fill="#0CAC76"/>
<path fill-rule="evenodd" clip-rule="evenodd" d="M74.27 234.92C74.6763 236.187 74.4652 238.07 75.9886 238.22C76.4408 237.237 75.5006 235.603 75.0634 234.654C74.6071 234.551 74.5036 234.801 74.27 234.92Z" fill="#0CAC76"/>
<path fill-rule="evenodd" clip-rule="evenodd" d="M80.2103 237.295C79.9609 237.784 80.0201 238.938 80.3447 239.276C80.6951 239.274 81.0972 239.324 81.269 239.142C81.103 238.34 81.4275 237.049 80.2103 237.295Z" fill="#0CAC76"/>
<path fill-rule="evenodd" clip-rule="evenodd" d="M69.5197 240.992C70.7352 241.02 70.8128 239.91 70.9722 238.88C69.9327 237.411 69.684 239.864 69.2544 240.596C69.3779 240.692 69.4546 240.835 69.5197 240.992Z" fill="#0CAC76"/>
<path d="M390.06 49.0623L369.75 91.1855C371.069 91.6627 372.291 92.0471 373.363 92.3253L395.194 51.296L390.06 49.0623Z" fill="#ED7C64"/>
<path d="M370.979 40.7616L356.465 83.2231L356.466 83.2237C355.999 84.2974 360.374 87.2356 366.238 89.7863C367.453 90.3151 368.632 90.7817 369.75 91.1856L390.06 49.0624L370.979 40.7616Z" fill="#DF3829"/>
<path d="M395.194 51.296L373.363 92.3253C375.779 92.9522 377.444 93.0496 377.7 92.4609L398.871 52.8953L395.194 51.296Z" fill="#DF3829"/>
<path fill-rule="evenodd" clip-rule="evenodd" d="M399.802 50.4992C399.76 50.4391 399.322 51.9074 399.322 51.9074L399.803 54.2947C393.218 56.9903 382.033 52.962 374.561 47.6719C372.132 45.9515 369.637 44.1626 368.884 41.8506L370.823 40.5125C371.222 40.1796 371.312 39.6288 371.756 38.7419C379.05 36.9939 395.075 45.2735 399.802 50.4992Z" fill="white"/>
<path d="M392.541 49.5703C386.546 48.1844 376.46 42.8963 372.727 39.6284C372.39 39.3351 372.069 39.0431 371.752 38.7478C371.377 39.499 371.254 40.0059 370.98 40.348C376.193 44.3647 387.228 50.2734 392.541 49.5703Z" fill="#ECECE9"/>
<path fill-rule="evenodd" clip-rule="evenodd" d="M397.326 49.4407C397.128 49.8965 391.854 48.0426 385.55 45.2999C379.244 42.5565 374.292 39.9622 374.49 39.5064C374.689 39.0493 379.963 40.9038 386.269 43.6471C392.573 46.3899 397.525 48.9835 397.326 49.4407Z" fill="#ECECE9"/>
<path d="M407.583 30.0607C407.914 30.2843 408.262 30.3475 408.36 30.2013C408.457 30.0571 408.268 29.7597 407.937 29.5355C407.605 29.3147 407.257 29.2513 407.158 29.3969C407.062 29.5404 407.252 29.8387 407.583 30.0607Z" fill="white"/>
<path d="M397.906 43.1487L396.196 45.689C396.653 45.803 397.334 45.8331 398.047 45.5278L399.986 42.645C399.234 43.1528 398.47 43.2259 397.906 43.1487Z" fill="#BB2027"/>
<path d="M400.72 38.9639L399.332 41.0263C399.849 41.1219 400.577 41.0938 401.309 40.6805L402.776 38.4989C402.031 38.9858 401.274 39.0427 400.72 38.9639Z" fill="#BB2027"/>
<path d="M402.149 36.8417C402.66 36.9399 403.377 36.9187 404.106 36.5213L405.742 34.0914C405.002 34.5514 404.258 34.5993 403.715 34.5136L402.149 36.8417Z" fill="#BB2027"/>
<path d="M394.763 47.8165L394.164 48.7057C394.143 49.1777 395.04 49.3743 395.433 49.4096L396.69 47.543C395.967 47.9163 395.259 47.9192 394.763 47.8165Z" fill="#BB2027"/>
<path d="M407.074 32.1094L408.361 30.2016C408.262 30.3468 407.913 30.2837 407.586 30.0618C407.252 29.8387 407.062 29.5417 407.159 29.3959L405.145 32.3875C405.643 32.4901 406.351 32.4859 407.074 32.1094Z" fill="#BB2027"/>
<path d="M405.145 32.3876L403.715 34.5137C404.258 34.5993 405.002 34.5514 405.742 34.0914L407.074 32.1096C406.351 32.486 405.643 32.4902 405.145 32.3876Z" fill="white"/>
<path d="M402.149 36.8417L400.72 38.9639C401.274 39.0445 402.031 38.9857 402.776 38.4988L404.106 36.5212C403.377 36.9186 402.66 36.9398 402.149 36.8417Z" fill="white"/>
<path d="M399.332 41.0262L397.904 43.1462C398.469 43.2272 399.235 43.1531 399.988 42.6471L401.307 40.6818C400.577 41.0937 399.851 41.1224 399.332 41.0262Z" fill="white"/>
<path d="M396.195 45.6884L394.763 47.8165C395.259 47.9192 395.967 47.9163 396.689 47.5449L398.047 45.5278C397.334 45.8331 396.653 45.803 396.195 45.6884Z" fill="white"/>
<path fill-rule="evenodd" clip-rule="evenodd" d="M322.645 60.2762C322.729 60.2825 322.801 60.1796 322.95 60.2593C325.106 61.4021 325.612 62.3649 327.185 63.598C333.771 68.7556 343.434 74.2625 353.389 76.9425C354.907 77.3498 356.899 77.9332 358.735 78.0712C360.223 78.1811 364.8 77.4714 364.143 80.4241C363.736 82.241 361.249 82.4576 359.214 82.4668C349.77 82.5176 336.07 76.8236 327.614 70.5141C326.003 69.3129 324.685 68.0418 323.277 66.3848C322.152 65.0582 320.268 63.1907 320.926 61.4731C321.294 60.5209 321.859 60.2147 322.645 60.2762Z" fill="#B97943"/>
<path fill-rule="evenodd" clip-rule="evenodd" d="M355.293 74.6077C355.934 76.053 357.632 76.363 358.901 76.6258C362.611 77.3933 367.122 76.1713 370.733 77.2855C372.417 77.8048 375.152 79.3724 374.494 81.0158C373.99 82.272 371.794 82.4531 369.933 81.8732C368.357 81.3819 366.964 80.2533 365.671 80.3191C364.237 80.3924 363.704 81.9101 362.276 82.2814C360.722 82.6855 358.39 81.7652 357.094 80.7774C355.013 79.1873 354.342 75.5825 351.063 77.1058C350.371 77.429 349.922 78.1528 349.024 78.0136C346.928 77.6884 345.713 74.8947 344.108 74.5288C342.206 74.0961 341.07 77.9 338.762 76.842C337.833 76.4156 337.648 75.1421 337.644 74.2588C337.635 73.2073 338.2 72.0141 337.37 71.4463C335.341 70.0631 332.33 74.6098 329.87 72.5226C328.34 71.227 331.213 68.2235 331.628 67.454C330.319 66.4073 327.912 67.1931 327.061 65.9159C326.581 65.196 327.228 64.3455 326.985 63.3391C325.352 61.937 322.883 61.4268 320.586 60.8556C318.973 60.4534 314.685 59.7794 314.91 58.0863C315.227 55.6836 319.772 56.6419 321.505 57.3667C322.343 57.715 323.062 58.3406 324.092 58.6409C324.336 58.2105 323.814 56.4983 324.936 56.0148C328.546 55.7509 327.923 61.0448 329.981 61.9506C331.865 62.7797 332.235 60.7977 333.807 61.0719C335.55 61.3747 336.273 63.0724 336.726 63.9881C337.351 65.2509 337.46 66.5215 338.618 67.2032C340.498 68.3116 343.142 67.0695 345.186 68.2663C346.03 68.7596 346.037 69.7174 346.761 70.1481C347.953 70.8578 351.079 70.5538 352.307 70.4665C354.653 70.2982 355.865 69.9634 357.586 70.3678C361.155 71.2135 359.481 72.8943 357.694 73.5572C356.611 73.9589 355.674 74 355.293 74.6077Z" fill="#0CAC76"/>
<path fill-rule="evenodd" clip-rule="evenodd" d="M362.473 82.5181C361.767 84.2543 360.804 85.3421 359.857 86.4655C350.03 89.7525 330.571 81.0466 322.252 72.5001C321.075 71.2919 319.344 69.6543 319.212 68.485C319.007 66.6786 320.688 64.1107 321.745 63.0061C321.771 63.0342 321.85 63.0262 321.871 63.0608C323.683 65.8043 325.755 68.5126 328.8 70.861C337.135 77.2909 350.654 81.9952 360.004 82.3417C360.866 82.3733 361.712 82.0622 362.473 82.5181Z" fill="#EDC949"/>
<path fill-rule="evenodd" clip-rule="evenodd" d="M326.548 54.7604C326.633 54.7672 326.704 54.6643 326.854 54.7434C329.01 55.8864 329.515 56.8494 331.089 58.0808C337.674 63.24 347.339 68.7478 357.293 71.4266C358.811 71.8355 360.801 72.4183 362.638 72.5559C364.127 72.6639 368.705 71.9566 368.047 74.9088C367.641 76.7256 365.153 76.943 363.118 76.9525C353.675 77.0004 339.975 71.3096 331.518 65.0004C329.906 63.7979 328.587 62.525 327.182 60.8697C326.057 59.5441 324.171 57.6751 324.83 55.9585C325.197 55.005 325.762 54.6984 326.548 54.7604Z" fill="#B97943"/>
<path fill-rule="evenodd" clip-rule="evenodd" d="M343.313 67.0182L342.636 66.385C342.326 64.2206 340.112 61.4933 338.942 60.1336C336.391 57.1696 333.031 54.384 329.373 53.1459C328.992 53.0168 328.557 52.888 328.125 52.8487L327.517 52.282L326.435 53.5276L326.441 53.5326C326.418 53.562 326.391 53.5825 326.368 53.6157C325.196 55.3306 326.802 57.6493 327.636 58.9544C328.641 60.5256 330.05 62.1857 331.25 63.368C332.582 64.6814 334.056 65.895 336.309 67.2159C338.391 68.4339 341.098 69.5098 342.198 68.2918L342.199 68.294L343.313 67.0182Z" fill="#BB2027"/>
<path fill-rule="evenodd" clip-rule="evenodd" d="M330.405 51.9705C334.064 53.2075 337.422 55.9939 339.972 58.9573C341.478 60.7047 344.72 64.7151 343.405 66.8829C342.449 68.4624 339.543 67.3293 337.339 66.0393C335.088 64.7205 333.613 63.5054 332.283 62.1935C331.08 61.0091 329.671 59.349 328.667 57.7796C327.835 56.4729 326.228 54.1548 327.4 52.4393C328.178 51.2986 329.448 51.6492 330.405 51.9705Z" fill="#DF3829"/>
<path fill-rule="evenodd" clip-rule="evenodd" d="M336.653 56.6148C336.38 57.4856 335.878 58.1894 335.259 58.1034C334.835 58.0433 333.618 56.3017 333.868 55.106C334.136 53.839 336.832 56.0435 336.653 56.6148Z" fill="#EDC949"/>
<path fill-rule="evenodd" clip-rule="evenodd" d="M333.67 57.0639C333.662 57.9764 330.278 56.155 329.096 55.4223C328.192 54.861 328.809 53.0854 329.467 53.1912C330.793 53.4017 333.681 56.0491 333.67 57.0639Z" fill="#EDC949"/>
<path fill-rule="evenodd" clip-rule="evenodd" d="M339.25 59.2413C338.958 60.1955 336.147 59.3645 335.974 58.8636C335.735 58.1619 337.204 57.3774 338.01 57.632C338.592 57.8169 339.432 58.6385 339.25 59.2413Z" fill="#EDC949"/>
<path fill-rule="evenodd" clip-rule="evenodd" d="M334.443 58.9446C334.624 59.6354 333.232 60.1156 331.714 60.0237C330.937 59.9765 329.834 58.1978 329.822 57.5335C329.991 56.9123 330.949 57.2529 331.659 57.4335C332.781 57.7213 334.201 58.0158 334.443 58.9446Z" fill="#EDC949"/>
<path fill-rule="evenodd" clip-rule="evenodd" d="M342.442 64.9675C341.841 66.3505 337.863 60.7052 338.072 60.2234C338.359 59.8931 340.037 60.9888 341.715 62.3881C342.45 63.0022 342.661 64.0318 342.442 64.9675Z" fill="#EDC949"/>
<path fill-rule="evenodd" clip-rule="evenodd" d="M336.346 63.5122C336.095 64.9088 332.219 62.2542 333.207 61.1537C333.906 60.3728 335.306 59.3586 335.993 59.6576C336.785 60.002 336.659 61.7586 336.346 63.5122Z" fill="#EDC949"/>
<path fill-rule="evenodd" clip-rule="evenodd" d="M340.113 66.1979C336.933 66.0114 336.822 63.1303 337.008 60.9572C338.145 60.6546 338.943 62.3173 339.533 63.4042C340.049 64.346 340.694 65.4183 340.113 66.1979Z" fill="#EDC949"/>
<path fill-rule="evenodd" clip-rule="evenodd" d="M356.958 71.2551L356.206 70.7123C355.631 68.5998 353.098 66.1678 351.768 64.9616C348.87 62.3379 345.195 59.9877 341.411 59.2105C341.015 59.1297 340.569 59.055 340.135 59.0696L339.464 58.5829L338.541 59.9508L338.548 59.9561C338.528 59.9885 338.506 60.0125 338.488 60.0464C337.536 61.8939 339.416 63.9963 340.404 65.188C341.594 66.624 343.198 68.096 344.536 69.1225C346.017 70.2601 347.632 71.2819 350.03 72.3135C352.247 73.2687 355.068 74.0007 356.007 72.6561L356.009 72.6576L356.958 71.2551Z" fill="#BB2027"/>
<path fill-rule="evenodd" clip-rule="evenodd" d="M342.288 57.916C346.072 58.6932 349.749 61.043 352.646 63.6674C354.356 65.2162 358.068 68.7972 357.033 71.1083C356.277 72.7934 353.253 72.0294 350.908 71.0231C348.509 69.9893 346.896 68.9661 345.415 67.8283C344.078 66.8008 342.471 65.3295 341.284 63.8937C340.294 62.7021 338.414 60.6004 339.365 58.7532C339.996 57.525 341.302 57.7144 342.288 57.916Z" fill="#DF3829"/>
<path fill-rule="evenodd" clip-rule="evenodd" d="M349.062 61.7551C348.899 62.652 348.488 63.4124 347.864 63.402C347.435 63.3958 346.013 61.819 346.115 60.5979C346.223 59.3084 349.171 61.1647 349.062 61.7551Z" fill="#EDC949"/>
<path fill-rule="evenodd" clip-rule="evenodd" d="M346.16 62.5668C346.264 63.4748 342.68 62.084 341.415 61.502C340.451 61.0579 340.844 59.2193 341.509 59.2418C342.851 59.2889 346.046 61.5586 346.16 62.5668Z" fill="#EDC949"/>
<path fill-rule="evenodd" clip-rule="evenodd" d="M351.965 64.0398C351.793 65.0228 348.9 64.5447 348.667 64.0676C348.344 63.4021 349.704 62.4429 350.535 62.5965C351.134 62.7067 352.072 63.4195 351.965 64.0398Z" fill="#EDC949"/>
<path fill-rule="evenodd" clip-rule="evenodd" d="M347.158 64.3397C347.422 65.0017 346.101 65.6476 344.582 65.745C343.808 65.7952 342.491 64.1651 342.397 63.5066C342.488 62.8713 343.483 63.0893 344.208 63.1842C345.357 63.3307 346.803 63.4479 347.158 64.3397Z" fill="#EDC949"/>
<path fill-rule="evenodd" clip-rule="evenodd" d="M355.839 69.3274C355.414 70.7741 350.769 65.6619 350.918 65.16C351.161 64.7955 352.962 65.674 354.799 66.8576C355.603 67.3758 355.941 68.371 355.839 69.3274Z" fill="#EDC949"/>
<path fill-rule="evenodd" clip-rule="evenodd" d="M349.608 68.6362C349.532 70.0535 345.361 67.8958 346.204 66.6826C346.803 65.822 348.066 64.6434 348.783 64.8546C349.613 65.0982 349.704 66.8568 349.608 68.6362Z" fill="#EDC949"/>
<path fill-rule="evenodd" clip-rule="evenodd" d="M353.679 70.8357C350.502 71.0435 350.035 68.1998 349.951 66.02C351.043 65.5778 352.038 67.1302 352.759 68.1348C353.387 69.0079 354.159 69.9921 353.679 70.8357Z" fill="#EDC949"/>
<path fill-rule="evenodd" clip-rule="evenodd" d="M367.748 74.0926L366.998 73.5512C366.426 71.4399 363.89 69.0067 362.561 67.8002C359.663 65.1755 355.987 62.8251 352.202 62.0508C351.807 61.9674 351.361 61.8937 350.929 61.9072L350.256 61.4207L349.335 62.7903L349.341 62.7947C349.322 62.8258 349.297 62.8496 349.279 62.8857C348.328 64.7329 350.208 66.8346 351.195 68.0274C352.387 69.4619 353.991 70.9343 355.327 71.9615C356.81 73.0987 358.425 74.1224 360.824 75.1534C363.039 76.1074 365.859 76.8385 366.8 75.495L366.802 75.4962L367.748 74.0926Z" fill="#BB2027"/>
<path fill-rule="evenodd" clip-rule="evenodd" d="M353.081 60.756C356.865 61.5307 360.541 63.8802 363.439 66.5067C365.148 68.0559 368.86 71.634 367.824 73.9467C367.069 75.6324 364.047 74.8674 361.7 73.8594C359.302 72.8277 357.688 71.8036 356.206 70.6667C354.867 69.6403 353.265 68.1681 352.075 66.7316C351.087 65.5398 349.206 63.4384 350.158 61.5912C350.791 60.3636 352.094 60.5525 353.081 60.756Z" fill="#DF3829"/>
<path fill-rule="evenodd" clip-rule="evenodd" d="M359.856 64.5924C359.693 65.49 359.282 66.2494 358.655 66.2392C358.227 66.2341 356.806 64.6573 356.907 63.4375C357.016 62.1477 359.963 64.0034 359.856 64.5924Z" fill="#EDC949"/>
<path fill-rule="evenodd" clip-rule="evenodd" d="M356.953 65.4044C357.055 66.3135 353.472 64.9233 352.209 64.3406C351.243 63.8969 351.635 62.0583 352.303 62.0806C353.645 62.1262 356.838 64.3969 356.953 65.4044Z" fill="#EDC949"/>
<path fill-rule="evenodd" clip-rule="evenodd" d="M362.756 66.8779C362.587 67.86 359.692 67.384 359.459 66.9062C359.136 66.2417 360.496 65.2812 361.33 65.434C361.928 65.5436 362.864 66.2565 362.756 66.8779Z" fill="#EDC949"/>
<path fill-rule="evenodd" clip-rule="evenodd" d="M357.949 67.1765C358.215 67.8403 356.895 68.4867 355.374 68.5831C354.6 68.6313 353.282 67.0037 353.189 66.345C353.281 65.7093 354.274 65.9293 355.001 66.0212C356.149 66.169 357.594 66.2866 357.949 67.1765Z" fill="#EDC949"/>
<path fill-rule="evenodd" clip-rule="evenodd" d="M366.633 72.168C366.205 73.6133 361.56 68.5 361.708 67.9984C361.954 67.6341 363.754 68.5153 365.589 69.6967C366.397 70.2144 366.734 71.2094 366.633 72.168Z" fill="#EDC949"/>
<path fill-rule="evenodd" clip-rule="evenodd" d="M360.401 71.4732C360.326 72.8924 356.152 70.7344 356.997 69.5202C357.594 68.6599 358.858 67.4807 359.577 67.6925C360.405 67.9371 360.497 69.6951 360.401 71.4732Z" fill="#EDC949"/>
<path fill-rule="evenodd" clip-rule="evenodd" d="M364.472 73.6752C361.295 73.8828 360.827 71.0353 360.743 68.8593C361.835 68.4172 362.831 69.9686 363.552 70.9741C364.18 71.8463 364.952 72.8292 364.472 73.6752Z" fill="#EDC949"/>
<path fill-rule="evenodd" clip-rule="evenodd" d="M328.485 47.61C337.938 56.5462 357.032 65.3454 370.334 66.2651C369.605 68.2281 368.604 72.5526 366.716 72.1701C365.26 71.8767 365.807 70.4932 364.983 69.6213C362.713 69.6003 362.711 73.8196 361.329 75.9599C360.945 76.5532 359.831 77.6653 358.943 77.3175C357.343 76.6872 358.338 74.5644 359.146 73.0662C360.041 71.4114 361.264 69.8205 360.811 68.5558C358.453 68.2595 357.157 71.8401 354.268 69.1484C353.859 68.7681 353.608 67.8224 353.488 67.1641C353.277 66.0214 353.416 65.4791 352.886 65.1081C352.044 64.5188 350.344 65.0478 349.391 65.2332C346.637 65.7677 344.211 65.5853 342.326 62.9066C341.34 61.5057 341.292 60.0009 340.364 59.5096C339.551 59.0818 337.941 59.2912 337.299 59.6722C335.446 60.7803 334.673 64.555 332.808 64.1513C331.247 63.8125 331.11 62.068 331.333 60.6682C331.594 59.007 332.779 57.2655 332.021 56.3296C330.99 55.5195 329.813 55.5665 328.879 54.9625C326.49 53.4199 326.582 50.5011 328.485 47.61Z" fill="#F5F585"/>
<path fill-rule="evenodd" clip-rule="evenodd" d="M372.012 66.1388C371.521 67.5549 368.503 66.7875 366.624 66.4872C361.014 65.5921 354.433 63.1275 347.996 60.4779C341.893 57.9647 335.347 54.7152 330.415 51.0343C328.955 49.9437 326.954 48.1448 327.123 46.9104C327.216 46.2236 328.189 45.2382 328.72 44.6129C330.42 42.6064 332.712 40.4407 334.584 39.3864C340.523 36.0377 348.422 37.7597 356.406 40.802C361.041 42.5655 365.969 45.2336 368.722 48.2526C373.188 53.1538 374.491 58.9887 372.012 66.1388Z" fill="#EDC949"/>
<path fill-rule="evenodd" clip-rule="evenodd" d="M359.027 42.6885C358.514 43.504 357.908 44.0864 357.003 43.9023C356.773 43.0567 358.376 41.2932 359.027 42.6885Z" fill="#B97943"/>
<path fill-rule="evenodd" clip-rule="evenodd" d="M355.067 42.1626C354.468 42.9701 353.124 43.1771 352.256 42.4349C352.773 41.4051 354.838 40.6482 355.067 42.1626Z" fill="#B97943"/>
<path fill-rule="evenodd" clip-rule="evenodd" d="M358.296 49.2954C359.297 49.3816 360.183 50.4132 360.007 51.5413C358.859 51.6447 357.127 50.2868 358.296 49.2954Z" fill="#B97943"/>
<path fill-rule="evenodd" clip-rule="evenodd" d="M366.552 46.7094C366.034 47.7748 365.101 47.7913 364.079 47.5783C364.47 46.3262 365.606 45.681 366.552 46.7094Z" fill="#B97943"/>
<path fill-rule="evenodd" clip-rule="evenodd" d="M361.618 46.3587C360.912 46.8055 359.568 46.9273 358.79 46.3253C359.333 45.6076 361.561 44.9542 361.618 46.3587Z" fill="#B97943"/>
<path fill-rule="evenodd" clip-rule="evenodd" d="M342.417 39.8748C341.709 40.3226 340.366 40.4446 339.587 39.8437C340.13 39.1253 342.357 38.4707 342.417 39.8748Z" fill="#B97943"/>
<path fill-rule="evenodd" clip-rule="evenodd" d="M349.45 41.6643C348.777 42.6563 346.595 41.5659 346.99 40.4422C347.583 39.5936 349.582 40.9366 349.45 41.6643Z" fill="#B97943"/>
<path fill-rule="evenodd" clip-rule="evenodd" d="M366.49 51.3205C366.389 51.8554 365.988 51.6342 365.784 51.9117C364.849 51.5512 364.507 50.9561 364.226 50.3355C364.281 50.2097 364.335 50.084 364.39 49.9582C365.193 49.9853 366.407 50.6713 366.49 51.3205Z" fill="#B97943"/>
<path fill-rule="evenodd" clip-rule="evenodd" d="M346.208 43.2528C346.107 43.7871 345.706 43.5681 345.502 43.8447C344.568 43.4845 344.224 42.8888 343.945 42.2684C344 42.1426 344.054 42.0182 344.109 41.8911C344.912 41.9179 346.125 42.6046 346.208 43.2528Z" fill="#B97943"/>
<path fill-rule="evenodd" clip-rule="evenodd" d="M354.393 46.8073C353.712 47.319 352.886 48.5331 352.134 48.2164C350.468 47.5155 353.249 45.494 354.393 46.8073Z" fill="#B97943"/>
<path d="M6.10942 124.828C6.10942 126.516 4.74207 127.883 3.05471 127.883C1.36786 127.883 0 126.516 0 124.828C0 123.141 1.36786 121.774 3.05471 121.774C4.74207 121.774 6.10942 123.141 6.10942 124.828Z" fill="#EF3244"/>
<path d="M6.10942 140.587C6.10942 142.274 4.74207 143.642 3.05471 143.642C1.36786 143.642 0 142.274 0 140.587C0 138.9 1.36786 137.532 3.05471 137.532C4.74207 137.532 6.10942 138.9 6.10942 140.587Z" fill="white"/>
<path d="M35.0998 35.5646C35.8666 35.7177 36.6673 35.7574 37.4258 35.5687C39.7514 34.9894 40.7979 30.815 37.7854 30.9979C36.028 31.1046 31.8589 34.9186 35.0998 35.5646Z" fill="#FBC815"/>
<path d="M57.8056 34.6645C58.572 34.8172 59.3731 34.8573 60.1316 34.6682C62.4572 34.0893 63.5033 29.9149 60.4908 30.0978C58.7334 30.2045 54.5643 34.0186 57.8056 34.6645Z" fill="#FBC815"/>
<path d="M42.9363 29.9025C42.763 30.491 42.6347 31.1447 42.8925 31.7013C43.2173 32.4015 44.0515 32.7156 44.8212 32.7685C46.2178 32.8641 47.6144 32.3121 48.6894 31.4154C49.7649 30.5191 50.5375 29.3004 51.0659 28.004C51.4809 26.9861 51.7437 25.791 51.2364 24.8161C50.1903 22.8062 46.961 23.1584 45.4998 24.4718C44.2456 25.5986 43.389 28.3653 42.9363 29.9025Z" fill="#FBC815"/>
<path d="M54.0828 31.8571C54.4995 31.7892 54.8459 31.4636 55.011 31.075C55.347 30.2855 54.6386 29.6122 53.8412 29.7897C53.2366 29.9242 52.8493 30.8292 53.1063 31.3737C53.2735 31.7288 53.7038 31.9188 54.0828 31.8571Z" fill="#FBC815"/>
<path d="M41.4959 39.3671C40.9886 39.7909 40.4899 40.2552 40.2077 40.8527C39.9255 41.4502 39.9036 42.2125 40.3124 42.7318C40.8769 43.4481 41.9701 43.4278 42.849 43.1845C44.2493 42.7972 45.5358 42.0072 46.5153 40.9334C47.4331 39.927 48.3915 37.2327 46.2972 36.8736C44.635 36.5889 42.6475 38.4055 41.4959 39.3671Z" fill="#FBC815"/>
<path d="M34.5631 38.7761C33.9863 39.2934 33.6374 40.1487 33.9395 40.8617C34.2159 41.5143 34.9765 41.8718 35.6833 41.825C36.39 41.7783 37.0372 41.3939 37.5561 40.9122C37.9286 40.5671 38.2559 40.157 38.4202 39.677C38.7309 38.7687 38.231 37.5484 37.1473 37.5269C36.3805 37.512 35.1052 38.2907 34.5631 38.7761Z" fill="#FBC815"/>
<path d="M57.2188 26.2749C57.705 26.4251 58.2401 26.3398 58.7089 26.1416C59.469 25.8197 60.1754 25.0902 59.9938 24.1984C59.8485 23.4834 59.2353 22.9723 58.5074 23.0613C57.1062 23.2326 55.0136 25.5942 57.2188 26.2749Z" fill="#FBC815"/>
<path d="M36.4261 27.7153C36.9123 27.8655 37.4473 27.7803 37.9162 27.5816C38.6763 27.2597 39.3827 26.5306 39.201 25.6388C39.0558 24.9234 38.4425 24.4123 37.7146 24.5013C36.3135 24.673 34.2209 27.0346 36.4261 27.7153Z" fill="#FBC815"/>
<path d="M48.0911 46.5606C48.5777 46.7109 49.1123 46.6256 49.5812 46.4274C50.3418 46.1055 51.0481 45.3759 50.8665 44.4842C50.7208 43.7687 50.108 43.2581 49.3797 43.347C47.9789 43.5184 45.8863 45.8799 48.0911 46.5606Z" fill="#FBC815"/>
<path d="M52.5634 37.088C51.9998 37.4409 51.4516 37.8924 51.226 38.5181C51.0005 39.1442 51.2236 39.9688 51.8422 40.2134C52.1976 40.3537 52.6028 40.2817 52.9611 40.1493C53.8044 39.8385 54.5199 39.195 54.9184 38.3894C55.0856 38.0513 55.1994 37.6685 55.1282 37.2982C55.0487 36.8852 54.7256 36.5285 54.3221 36.4093C53.9186 36.2902 53.4535 36.4135 53.1622 36.7168" fill="#FBC815"/>
</svg>
